<?xml version="1.0" standalone="no"?>
<!DOCTYPE svg PUBLIC "-//W3C//DTD SVG 20010904//EN"
 "http://www.w3.org/TR/2001/REC-SVG-20010904/DTD/svg10.dtd">
<svg version="1.0" xmlns="http://www.w3.org/2000/svg"
 width="700.000000pt" height="700.000000pt" viewBox="0 0 700.000000 700.000000"
 preserveAspectRatio="xMidYMid meet">
<metadata>
Created by potrace 1.14, written by Peter Selinger 2001-2017
</metadata>
<g transform="translate(0.000000,700.000000) scale(0.100000,-0.100000)"
fill="#000000" stroke="none">
<path d="M0 3500 l0 -3500 3500 0 3500 0 0 3500 0 3500 -3500 0 -3500 0 0
-3500z m3760 1640 c96 -25 241 -90 327 -147 84 -55 213 -183 273 -269 l51 -74
-554 0 c-504 0 -556 2 -568 17 -29 34 -147 116 -216 149 -40 19 -118 45 -174
58 l-101 23 43 37 c115 98 285 180 449 215 127 28 343 24 470 -9z m717 -635
c18 -44 33 -83 33 -87 0 -5 -236 -8 -525 -8 l-525 0 -10 25 c-5 14 -25 49 -43
78 -18 28 -37 58 -41 65 -6 10 101 12 536 10 l543 -3 32 -80z m57 -200 c3 -9
9 -51 12 -95 l7 -80 -517 0 -516 0 0 33 c0 17 -6 60 -14 95 l-13 62 518 0
c454 0 518 -2 523 -15z m6 -311 c0 -14 -7 -56 -16 -95 l-16 -69 -514 0 c-283
0 -514 2 -514 5 0 3 6 34 14 68 8 34 17 74 21 90 l5 27 510 0 510 0 0 -26z
m-90 -309 c0 -14 -47 -96 -92 -162 -58 -84 -188 -211 -271 -266 -86 -58 -231
-122 -327 -147 -132 -34 -325 -38 -460 -10 -158 32 -321 106 -439 198 l-23 19
73 17 c180 44 340 149 456 299 l44 57 520 0 c285 0 519 -2 519 -5z m1426
-1170 c9 -8 22 -15 30 -15 8 0 17 7 20 15 7 18 54 20 54 3 0 -49 -114 -69
-144 -26 -9 12 -16 26 -16 30 0 14 41 9 56 -7z m-2285 -65 c20 -6 43 -18 53
-28 15 -18 15 -20 -3 -36 -18 -16 -21 -16 -51 -1 -40 21 -83 12 -110 -22 -58
-74 26 -172 110 -128 30 15 33 15 51 -1 18 -16 18 -18 2 -36 -22 -25 -85 -40
-129 -32 -75 14 -133 97 -119 170 11 62 78 119 145 123 8 1 31 -4 51 -9z
m1782 -16 c88 -46 89 -202 0 -247 -46 -23 -82 -28 -124 -17 -82 22 -127 95
-109 177 21 92 138 136 233 87z m-4189 -5 c29 -23 36 -78 12 -98 -12 -10 -10
-16 10 -36 32 -32 30 -60 -5 -96 -28 -28 -33 -29 -125 -29 l-96 0 0 140 0 140
89 0 c74 0 92 -3 115 -21z m436 -23 l0 -44 66 -4 c58 -4 70 -8 90 -32 32 -36
32 -86 0 -123 -23 -27 -29 -28 -125 -31 l-101 -4 0 141 0 141 35 0 c35 0 35 0
35 -44z m280 -96 l0 -140 -35 0 -35 0 0 140 0 140 35 0 35 0 0 -140z m610 0
l0 -140 -35 0 -34 0 -3 113 -3 112 -60 0 -60 0 -3 -112 -3 -113 -29 0 -30 0 0
140 0 140 130 0 130 0 0 -140z m415 75 c15 -36 31 -68 36 -71 5 -2 24 27 44
66 33 66 37 70 69 70 l34 0 -60 -112 c-81 -152 -135 -202 -186 -169 -22 13
-10 46 18 49 54 8 54 18 -5 128 l-55 104 38 0 c38 0 39 -1 67 -65z m1125 10
c0 -50 2 -55 23 -55 16 0 32 15 57 55 31 48 39 55 68 55 17 0 32 -2 32 -6 0
-3 -18 -32 -40 -64 -22 -32 -40 -61 -40 -64 0 -3 20 -37 45 -76 l45 -70 -39 0
c-35 0 -41 4 -75 55 -24 36 -43 55 -56 55 -18 0 -20 -7 -20 -55 l0 -55 -35 0
-35 0 0 140 0 140 35 0 35 0 0 -55z m570 0 l0 -55 60 0 60 0 0 55 0 55 35 0
35 0 0 -140 0 -140 -35 0 -35 0 0 55 0 55 -60 0 -60 0 0 -55 0 -55 -35 0 -35
0 0 140 0 140 35 0 35 0 0 -55z m1220 -32 l0 -87 63 86 c56 78 65 87 95 87
l32 1 0 -140 0 -140 -35 0 -34 0 -3 82 -3 82 -59 -82 c-54 -75 -62 -82 -93
-82 l-33 0 0 140 0 140 35 0 35 0 0 -87z"/>
<path d="M5250 2387 c-52 -27 -62 -104 -19 -143 31 -28 96 -25 120 5 24 30 25
92 2 120 -23 27 -71 35 -103 18z"/>
<path d="M1050 2371 c0 -30 1 -31 46 -31 44 0 45 1 42 28 -3 24 -7 27 -45 30
-42 3 -43 2 -43 -27z"/>
<path d="M1050 2254 l0 -35 46 3 c88 6 81 68 -8 68 -37 0 -38 -1 -38 -36z"/>
<path d="M1620 2265 l0 -45 43 0 c48 0 67 13 67 47 0 27 -27 43 -74 43 -36 0
-36 0 -36 -45z"/>
</g>
</svg>
